<?xml version="1.0" standalone="no"?>
<!DOCTYPE svg PUBLIC "-//W3C//DTD SVG 20010904//EN"
 "http://www.w3.org/TR/2001/REC-SVG-20010904/DTD/svg10.dtd">
<svg version="1.0" xmlns="http://www.w3.org/2000/svg"
 width="172.000000pt" height="172.000000pt" viewBox="0 0 172.000000 172.000000"
 preserveAspectRatio="xMidYMid meet">
<metadata>
Created by potrace 1.14, written by Peter Selinger 2001-2017
</metadata>
<g transform="translate(0.000000,172.000000) scale(0.100000,-0.100000)"
fill="#000000" stroke="none">
<path d="M497 1623 c-4 -3 -7 -18 -7 -32 0 -22 5 -26 30 -27 31 -1 39 13 18
34 -7 7 -8 12 -2 12 6 0 21 -11 34 -25 30 -32 45 -33 25 -2 -22 35 -80 58 -98
40z"/>
<path d="M548 1543 c-12 -3 -18 -14 -18 -36 0 -18 -6 -44 -14 -59 l-14 -26 67
1 c36 1 81 -2 100 -7 l34 -9 -5 46 c-5 42 -34 105 -43 95 -2 -2 2 -22 10 -43
8 -22 14 -49 14 -60 l0 -20 -14 20 c-8 11 -18 25 -22 30 -4 6 -15 24 -23 40
-15 29 -37 38 -72 28z"/>
<path d="M137 1453 c-22 -40 -6 -134 34 -199 26 -42 24 -86 -5 -121 -31 -37
-56 -87 -56 -112 0 -27 35 -93 63 -119 27 -25 69 -42 105 -42 17 -1 34 -10 45
-25 21 -30 15 -45 -19 -45 -29 0 -29 7 -4 -99 10 -47 21 -97 22 -111 3 -22 7
-25 43 -23 l40 1 0 -106 0 -107 -49 -7 c-106 -15 -83 -53 33 -53 82 0 111 12
111 46 0 18 58 119 69 119 20 1 172 -88 177 -103 8 -26 3 -29 -76 -35 -49 -3
-73 -9 -77 -19 -11 -28 17 -38 100 -38 l82 0 0 -28 c0 -26 5 -29 132 -72 163
-55 269 -70 390 -55 92 12 180 44 222 83 34 32 61 95 61 148 0 70 -44 149 -97
174 -26 12 -42 27 -43 38 0 13 -8 17 -34 17 l-35 0 2 47 2 48 38 0 c38 0 39 1
34 33 l-6 32 60 0 c44 0 61 4 65 15 8 20 -12 100 -37 150 -36 69 -127 153
-151 139 -7 -5 -59 -10 -115 -12 -101 -4 -103 -3 -112 19 -4 13 -6 29 -4 35 2
6 -16 20 -41 30 -26 11 -49 27 -52 36 -5 16 -96 50 -159 60 -13 2 -21 12 -23
28 -5 48 -25 115 -39 132 -18 20 -104 42 -133 33 -12 -4 -27 -1 -36 6 -18 15
-32 3 -16 -13 6 -6 34 -11 61 -9 78 3 113 -16 135 -78 12 -35 16 -63 11 -87
-6 -32 -9 -35 -32 -29 -62 15 -82 16 -122 5 -23 -6 -45 -19 -48 -28 -3 -9 -16
-39 -29 -66 -13 -28 -24 -60 -24 -72 0 -12 -11 -35 -24 -51 -13 -15 -38 -56
-55 -91 -17 -35 -38 -65 -46 -69 -26 -9 -64 6 -105 43 -34 30 -43 34 -73 29
-25 -5 -46 -1 -73 13 -47 24 -68 46 -83 91 -17 53 -14 75 24 130 19 28 35 61
35 74 0 12 7 33 16 45 8 12 14 28 12 34 -2 6 21 34 51 62 32 28 60 63 65 80 6
22 10 27 15 16 7 -17 24 -18 89 -5 24 4 39 12 35 16 -5 5 -23 5 -41 0 -23 -7
-40 -6 -59 4 -33 17 -40 13 -51 -28 -5 -18 -15 -33 -24 -35 -9 -2 -41 17 -72
42 -51 43 -89 57 -99 39z m46 -117 c16 -24 27 -86 16 -86 -11 0 -49 84 -56
124 -3 19 -2 43 2 53 6 14 10 7 16 -26 5 -24 15 -53 22 -65z m827 -441 c0 -13
-11 -15 -62 -13 -38 2 -63 8 -66 16 -3 9 14 12 62 12 53 0 66 -3 66 -15z
m-703 -157 c-3 -8 -6 -5 -6 6 -1 11 2 17 5 13 3 -3 4 -12 1 -19z m20 -50 c-3
-8 -6 -5 -6 6 -1 11 2 17 5 13 3 -3 4 -12 1 -19z m420 -270 c-2 -18 -4 -4 -4
32 0 36 2 50 4 33 2 -18 2 -48 0 -65z m707 -13 c11 -8 29 -15 40 -15 55 0 82
-73 52 -144 -12 -30 -82 -95 -90 -85 -1 2 -13 38 -26 79 -16 54 -31 83 -53
102 -27 25 -29 30 -19 53 9 19 19 25 44 25 18 0 42 -7 52 -15z m-1017 -37 c-3
-7 -5 -2 -5 12 0 14 2 19 5 13 2 -7 2 -19 0 -25z m784 -44 c34 -17 62 -60 64
-100 1 -17 5 -37 9 -43 4 -6 5 -25 1 -41 -6 -29 -8 -30 -71 -30 l-63 0 2 58
c2 45 -4 69 -25 113 -16 31 -28 59 -28 63 0 11 80 -4 111 -20z m-257 1 c29
-19 52 -106 39 -151 l-8 -32 -55 17 c-50 16 -55 20 -53 45 1 15 -7 43 -18 62
-10 19 -19 37 -19 40 0 7 61 33 78 34 7 0 23 -7 36 -15z"/>
<path d="M902 1333 l3 -88 48 -3 c36 -2 47 0 47 12 0 9 -12 16 -32 18 -39 4
-45 29 -9 38 37 8 38 29 2 36 -21 5 -31 12 -31 25 0 15 7 19 36 19 54 0 37 24
-20 28 l-47 3 3 -88z"/>
<path d="M1025 1339 c-5 -51 -4 -84 3 -91 15 -15 32 0 32 28 0 32 27 32 42 -1
13 -28 38 -34 38 -8 0 9 -7 24 -16 34 -12 13 -13 22 -5 38 24 45 0 81 -54 81
l-33 0 -7 -81z m75 27 c0 -18 -30 -30 -43 -17 -5 5 -6 18 -2 30 5 17 10 19 26
11 10 -6 19 -17 19 -24z"/>
<path d="M1164 1407 c-10 -27 1 -160 14 -165 7 -2 12 6 12 22 0 37 20 43 46
13 39 -45 62 -27 28 22 -13 18 -14 28 -5 48 18 38 -8 73 -55 73 -20 0 -37 -6
-40 -13z m76 -36 c0 -14 -28 -33 -40 -26 -11 7 -14 38 -4 48 8 8 44 -10 44
-22z"/>
<path d="M1311 1394 c-30 -38 -28 -98 4 -129 31 -32 66 -32 104 1 25 21 31 33
31 65 0 80 -93 122 -139 63z m89 -16 c25 -28 26 -62 0 -88 -24 -24 -38 -25
-62 -3 -26 23 -24 78 4 97 29 21 33 20 58 -6z"/>
<path d="M1482 1335 c2 -48 7 -85 13 -85 6 -1 11 11 13 25 4 32 29 32 44 0 13
-28 38 -34 38 -8 0 9 -7 24 -16 34 -12 13 -13 22 -5 38 25 45 0 81 -55 81
l-35 0 3 -85z m68 34 c0 -10 -2 -19 -4 -19 -2 0 -11 -3 -20 -6 -12 -5 -16 0
-16 18 0 14 3 27 6 31 11 11 34 -5 34 -24z"/>
<path d="M554 1368 c1 -17 -5 -23 -19 -23 -13 0 -20 6 -19 18 2 26 -5 21 -51
-28 l-42 -46 -45 12 c-44 12 -49 11 -86 -14 -42 -27 -72 -90 -72 -149 0 -58
109 -90 163 -48 l26 21 17 -26 c21 -32 69 -58 93 -50 37 11 65 54 64 94 -2 34
2 40 23 45 32 8 114 88 114 110 0 22 -31 49 -92 81 -59 31 -75 31 -74 3z m26
-52 c0 -2 -9 -6 -20 -9 -11 -3 -18 -1 -14 4 5 9 34 13 34 5z m-263 -63 c-14
-14 -19 -15 -29 -4 -11 10 -9 15 6 27 27 20 47 0 23 -23z m253 2 c0 -8 -4 -15
-9 -15 -13 0 -22 16 -14 24 11 11 23 6 23 -9z m-27 -63 c22 -37 26 -97 9 -114
-17 -17 -25 -3 -12 21 8 17 7 26 -9 48 -25 36 -37 87 -19 81 7 -3 21 -19 31
-36z m-173 9 c14 -27 13 -44 -2 -38 -7 2 -13 12 -13 23 0 12 -8 20 -21 22 -16
2 -25 -4 -32 -25 -6 -15 -11 -22 -11 -15 -2 26 20 52 44 52 14 0 29 -8 35 -19z
m80 -41 c11 -22 20 -43 19 -47 -4 -22 3 -32 23 -35 12 -2 23 -9 26 -17 7 -22
-50 -4 -70 22 -25 32 -42 117 -23 117 3 0 14 -18 25 -40z"/>
</g>
</svg>
